<?xml version="1.0" standalone="no"?>
<!DOCTYPE svg PUBLIC "-//W3C//DTD SVG 20010904//EN"
 "http://www.w3.org/TR/2001/REC-SVG-20010904/DTD/svg10.dtd">
<svg version="1.0" xmlns="http://www.w3.org/2000/svg"
 width="300.000000pt" height="300.000000pt" viewBox="0 0 300.000000 300.000000"
 preserveAspectRatio="xMidYMid meet">
<metadata>
Created by potrace 1.14, written by Peter Selinger 2001-2017
</metadata>
<g transform="translate(0.000000,300.000000) scale(0.100000,-0.100000)"
fill="#000000" stroke="none">
<path d="M0 1500 l0 -1500 1500 0 1500 0 0 1500 0 1500 -1500 0 -1500 0 0
-1500z m2402 776 c136 -26 304 -95 397 -164 20 -14 38 -27 40 -29 2 -1 -13
-56 -34 -122 l-38 -119 -76 -6 c-42 -4 -112 -19 -156 -34 -69 -23 -89 -35
-141 -87 -81 -81 -109 -153 -109 -280 1 -195 92 -337 257 -400 64 -25 90 -29
216 -33 l142 -4 0 -134 0 -134 -111 0 c-285 0 -478 77 -620 247 -52 62 -114
189 -135 278 -22 88 -24 269 -5 345 39 154 138 301 254 378 20 13 37 29 37 33
0 5 -32 9 -72 9 -280 0 -558 -156 -848 -475 -63 -69 -180 -224 -306 -405 -215
-308 -423 -409 -851 -410 l-133 0 0 134 0 134 178 5 c189 6 253 17 349 62 68
33 174 136 245 241 178 261 282 390 429 536 187 185 370 307 579 386 47 17
102 32 215 55 47 10 229 6 297 -7z"/>
</g>
</svg>
